<?xml version="1.0" encoding="UTF-8"?>
<svg id="Layer_1" data-name="Layer 1" xmlns="http://www.w3.org/2000/svg" viewBox="0 0 2000 2000">
  <defs>
    <style>
      .cls-1 {
        fill: #a891ee;
      }

      .cls-1, .cls-2, .cls-3, .cls-4, .cls-5, .cls-6 {
        stroke-width: 0px;
      }

      .cls-2 {
        fill: #fff;
      }

      .cls-3 {
        fill: #d9534f;
      }

      .cls-4 {
        fill: #add8e6;
      }

      .cls-5 {
        fill: #ffdb58;
      }

      .cls-6 {
        fill: #22c55e;
      }
    </style>
  </defs>
  <rect class="cls-2" y="0" width="2000" height="2000"/>
  <path class="cls-4" d="m1614.84,382.16l-53.58,53.58-161.49,161.49-80.17,80.18c-82.45-82.46-196.44-133.37-322.6-133.37V126.06c241.28,0,459.76,98.03,617.83,256.1Z"/>
  <path class="cls-3" d="m1794.95,999.99c0,220.38-89.29,419.87-233.68,564.26-144.39,144.39-343.87,233.68-564.26,233.68v-341.97c251.92,0,455.97-204.04,455.97-455.97h341.97Z"/>
  <path class="cls-1" d="m674.41,677.4c-82.45,82.45-133.37,196.44-133.37,322.6H199.07c0-220.38,89.29-419.87,233.68-564.26l161.49,161.49,80.17,80.18Z"/>
  <path class="cls-1" d="m997.01,202.05v341.97c-126.15,0-240.14,50.91-322.6,133.37l-80.17-80.18-161.49-161.49c144.39-144.39,343.87-233.68,564.26-233.68Z"/>
  <path class="cls-6" d="m997.01,1455.96v417.97c-482.56,0-873.93-391.37-873.93-873.93h417.97c0,251.92,204.04,455.97,455.97,455.97Z"/>
  <path class="cls-5" d="m1870.94,999.99h-417.97c0-126.15-50.92-240.14-133.37-322.6l80.17-80.18,161.49-161.49,53.58-53.58c158.07,158.07,256.1,376.55,256.1,617.83Z"/>
  <path class="cls-5" d="m1566.97,999.99h-113.99c0-126.15-50.92-240.14-133.37-322.6l80.17-80.18c103.35,102.97,167.19,245.46,167.19,402.77Z"/>
  <path class="cls-3" d="m1566.97,999.99c0,314.61-255.34,569.96-569.96,569.96v-113.99c251.92,0,455.97-204.04,455.97-455.97h113.99Z"/>
  <path class="cls-6" d="m997.01,1455.96v113.99c-314.62,0-569.96-255.34-569.96-569.96h113.99c0,251.92,204.04,455.97,455.97,455.97Z"/>
  <path class="cls-1" d="m674.41,677.4c-82.45,82.45-133.37,196.44-133.37,322.6h-113.99c0-157.31,63.83-299.8,167.19-402.77l80.17,80.18Z"/>
  <path class="cls-1" d="m997.01,430.03v113.99c-126.15,0-240.14,50.91-322.6,133.37l-80.17-80.18c102.97-103.35,245.46-167.19,402.77-167.19Z"/>
  <path class="cls-4" d="m1399.78,597.22l-80.17,80.18c-82.45-82.46-196.44-133.37-322.6-133.37v-113.99c157.31,0,299.8,63.83,402.77,167.19Z"/>
</svg>