<?xml version="1.0" encoding="UTF-8"?>
<svg id="Layer_2" data-name="Layer 2" xmlns="http://www.w3.org/2000/svg" viewBox="0 0 3768.42 5000">
  <defs>
    <style>
      .cls-1 {
        fill: #666;
      }

      .cls-1, .cls-2, .cls-3, .cls-4, .cls-5 {
        stroke-width: 0px;
      }

      .cls-2 {
        fill: #b3b3b3;
      }

      .cls-3 {
        fill: #fff;
      }

      .cls-4 {
        fill: #014ee8;
      }

      .cls-5 {
        fill: #f2f2f2;
      }
    </style>
  </defs>
  <path class="cls-4" d="m3548.02,5000H220.4c-121.72,0-220.4-98.68-220.4-220.4V376.93c0-121.72,98.68-220.4,220.4-220.4h3327.62c121.72,0,220.4,98.68,220.4,220.4v4402.67c0,121.72-98.68,220.4-220.4,220.4Z"/>
  <path class="cls-5" d="m3147.96,4680.26H620.46c-138.32,0-250.45-112.13-250.45-250.45V714.87c0-138.32,112.13-250.45,250.45-250.45h2527.5c138.32,0,250.45,112.13,250.45,250.45v3714.93c0,138.32-112.13,250.45-250.45,250.45Z"/>
  <path class="cls-2" d="m2848.76,653.9H919.66c-89.78,0-162.56-72.78-162.56-162.56v-6.47c0-89.78,72.78-162.56,162.56-162.56h1929.1c89.78,0,162.56,72.78,162.56,162.56v6.47c0,89.78-72.78,162.56-162.56,162.56Z"/>
  <path class="cls-1" d="m2469.04,421.06h-1169.66c-113.53,0-206.42-92.89-206.42-206.42v-8.21c0-113.53,92.89-206.42,206.42-206.42h1169.66c113.53,0,206.42,92.89,206.42,206.42v8.21c0,113.53-92.89,206.42-206.42,206.42Z"/>
  <g>
    <circle class="cls-4" cx="1879.26" cy="2559.27" r="918.07"/>
    <polygon class="cls-3" points="2307.91 2008.42 1665.23 2670.02 1451.72 2450.2 1236.61 2669.44 1664.68 3110.11 1665.23 3109.5 1665.81 3110.11 2521.92 2228.73 2307.91 2008.42"/>
  </g>
</svg>