<?xml version="1.0" encoding="UTF-8"?>
<svg id="Layer_1" data-name="Layer 1" xmlns="http://www.w3.org/2000/svg" viewBox="0 0 2000 2000">
  <defs>
    <style>
      .cls-1 {
        fill: #a891ee;
      }

      .cls-1, .cls-2, .cls-3, .cls-4, .cls-5 {
        stroke-width: 0px;
      }

      .cls-2 {
        fill: #d9534f;
      }

      .cls-3 {
        fill: #add8e6;
      }

      .cls-4 {
        fill: #ffdb58;
      }

      .cls-5 {
        fill: #22c55e;
      }
    </style>
  </defs>
  <path class="cls-3" d="m1692.65,304.35l-60.32,60.32-181.82,181.82-90.27,90.27c-92.84-92.84-221.18-150.17-363.22-150.17V16c271.67,0,517.66,110.38,695.64,288.35Z"/>
  <path class="cls-2" d="m1895.44,999.99c0,248.14-100.54,472.74-263.11,635.32-162.57,162.57-387.18,263.11-635.32,263.11v-385.04c283.65,0,513.39-229.74,513.39-513.39h385.04Z"/>
  <path class="cls-1" d="m98.57,1000c0-248.14,100.54-472.74,263.11-635.32C524.26,202.11,748.86,101.57,997,101.57v385.04c-283.65,0-513.39,229.74-513.39,513.39H98.57Z"/>
  <path class="cls-5" d="m997.01,1513.38v470.6c-543.33,0-983.99-440.66-983.99-983.99h470.6c0,283.65,229.74,513.39,513.39,513.39Z"/>
  <path class="cls-4" d="m1981,999.99h-470.6c0-142.04-57.33-270.38-150.17-363.22l90.27-90.27,181.82-181.82,60.32-60.32c177.97,177.97,288.35,423.97,288.35,695.64Z"/>
</svg>